<?xml version="1.0" encoding="UTF-8"?>
<svg id="_レイヤー_1" data-name="レイヤー 1" xmlns="http://www.w3.org/2000/svg" viewBox="0 0 123.53 196.02">
  <defs>
    <style>
      .cls-1, .cls-2, .cls-3 {
        stroke-width: 0px;
      }

      .cls-1, .cls-4, .cls-5 {
        fill: #231815;
      }

      .cls-2 {
        fill: #bf9d5a;
      }

      .cls-3 {
        fill: #45bdcf;
      }

      .cls-4 {
        stroke-width: .1px;
      }

      .cls-4, .cls-5 {
        stroke: #231815;
        stroke-linecap: round;
        stroke-linejoin: round;
      }

      .cls-5 {
        stroke-width: .2px;
      }
    </style>
  </defs>
  <path class="cls-3" d="m123.08,83.14c0,33.96-27.52,61.48-61.48,61.48S.12,117.09.12,83.14,27.64,21.66,61.6,21.66s61.48,27.52,61.48,61.48Z"/>
  <g>
    <path class="cls-5" d="m5.13,176.96l.08,1.42h-.17c-.03-.25-.08-.43-.14-.54-.1-.18-.21-.3-.37-.38-.15-.08-.35-.12-.61-.12h-.85v4.63c0,.38.04.61.12.7.12.13.29.19.52.19h.21v.17H1.34v-.17h.21c.25,0,.44-.07.55-.23.06-.09.1-.31.1-.65v-4.63h-.73c-.28,0-.48.02-.61.06-.15.05-.29.16-.39.32-.11.17-.18.38-.2.65H.1l.07-1.42h4.95Z"/>
    <path class="cls-5" d="m12.81,176.82c.79,0,1.47.3,2.05.9.57.6.86,1.35.86,2.24s-.29,1.69-.87,2.29c-.58.61-1.29.92-2.12.92s-1.53-.3-2.11-.89c-.56-.59-.85-1.36-.85-2.31s.33-1.75.99-2.36c.56-.53,1.24-.79,2.04-.79Zm-.08.33c-.54,0-.98.2-1.31.6-.4.51-.62,1.24-.62,2.21s.21,1.75.64,2.29c.33.4.75.61,1.29.61.57,0,1.04-.22,1.41-.67.37-.44.56-1.14.56-2.1,0-1.04-.2-1.81-.62-2.32-.33-.4-.79-.61-1.36-.61Z"/>
    <path class="cls-5" d="m25.38,176.82l.16,1.92h-.16c-.16-.48-.36-.83-.62-1.08-.36-.35-.83-.53-1.39-.53-.78,0-1.36.31-1.76.92-.34.52-.5,1.13-.5,1.84,0,.58.11,1.11.33,1.58.22.48.52.83.88,1.05.36.22.73.33,1.12.33.22,0,.44-.03.65-.08.21-.06.41-.14.61-.25v-1.75c0-.3-.02-.51-.07-.6-.04-.09-.12-.16-.21-.21-.1-.05-.27-.07-.51-.07v-.17h2.35v.17h-.11c-.23,0-.39.08-.48.23-.06.11-.1.33-.1.66v1.85c-.34.19-.68.33-1.02.41-.33.09-.7.13-1.11.13-1.18,0-2.07-.38-2.68-1.13-.46-.56-.68-1.21-.68-1.95,0-.53.13-1.04.38-1.54.31-.58.72-1.03,1.25-1.34.45-.26.97-.39,1.57-.39.22,0,.42.02.61.06.18.03.44.11.77.23.17.06.28.1.34.1.05,0,.1-.03.14-.08.04-.05.06-.16.07-.31h.17Z"/>
    <path class="cls-5" d="m33.39,176.82c.79,0,1.47.3,2.04.9.58.6.87,1.35.87,2.24s-.3,1.69-.87,2.29c-.58.61-1.29.92-2.12.92s-1.54-.3-2.11-.89c-.57-.59-.85-1.36-.85-2.31s.32-1.75.98-2.36c.57-.53,1.26-.79,2.05-.79Zm-.09.33c-.54,0-.98.2-1.31.6-.41.51-.62,1.24-.62,2.21s.21,1.75.64,2.29c.32.4.75.61,1.29.61.57,0,1.04-.22,1.41-.67.37-.44.55-1.14.55-2.1,0-1.04-.2-1.81-.61-2.32-.33-.4-.79-.61-1.36-.61Z"/>
    <path class="cls-5" d="m41.28,179.7h2.55v.68h-2.55v-.68Z"/>
    <path class="cls-5" d="m51.41,179.66l2.23,2.23c.37.37.69.62.95.75.26.13.52.21.78.22v.17h-2.88v-.17c.17,0,.3-.03.37-.09.07-.06.12-.12.12-.2,0-.07-.02-.13-.05-.19-.02-.05-.12-.16-.28-.32l-2.09-2.07v1.96c0,.31.02.51.06.61.02.07.08.14.18.19.13.07.27.11.42.11h.2v.17h-2.58v-.17h.21c.24,0,.44-.07.54-.22.07-.1.11-.33.11-.69v-3.92c0-.3-.02-.51-.05-.61-.03-.07-.1-.13-.19-.19-.13-.07-.27-.11-.4-.11h-.21v-.17h2.58v.17h-.2c-.15,0-.28.03-.42.1-.08.05-.15.12-.19.21-.03.1-.05.29-.05.59v1.86c.06-.06.27-.24.62-.57.88-.81,1.42-1.35,1.61-1.63.08-.12.12-.22.12-.31,0-.08-.03-.13-.1-.19-.05-.05-.16-.07-.31-.07h-.14v-.17h2.22v.17c-.13,0-.25.02-.35.05-.12.03-.24.1-.4.19-.15.1-.34.25-.56.46-.07.06-.37.37-.91.92l-.93.92Z"/>
    <path class="cls-5" d="m62.07,182.86v.17h-2.61v-.17h.22c.24,0,.42-.07.54-.22.07-.1.11-.33.11-.69v-3.92c0-.3-.02-.51-.05-.61-.03-.07-.1-.14-.19-.19-.13-.07-.27-.11-.4-.11h-.22v-.17h2.61v.17h-.22c-.25,0-.43.07-.54.22-.07.1-.11.32-.11.69v3.92c0,.31.02.51.06.61.02.07.09.14.18.19.13.07.27.11.4.11h.22Z"/>
    <path class="cls-5" d="m66.3,176.96h1.65l3.71,4.55v-3.5c0-.37-.04-.61-.13-.7-.11-.13-.29-.18-.52-.18h-.21v-.17h2.12v.17h-.21c-.26,0-.45.07-.55.23-.06.1-.1.31-.1.66v5.12h-.16l-4.01-4.89v3.74c0,.38.04.61.13.7.11.13.29.19.52.19h.21v.17h-2.12v-.17h.21c.27,0,.45-.07.55-.23.06-.09.1-.31.1-.65v-4.22c-.17-.2-.31-.34-.39-.4-.1-.07-.22-.13-.4-.19-.09-.03-.22-.04-.39-.04v-.17Z"/>
    <path class="cls-5" d="m78.71,177.29v2.4h1.34c.34,0,.57-.05.69-.16.15-.14.23-.38.26-.73h.17v2.12h-.17c-.04-.3-.09-.48-.13-.57-.05-.11-.14-.19-.27-.24-.12-.06-.31-.09-.55-.09h-1.34v2c0,.27.01.43.03.49.03.06.06.11.13.14.06.03.17.05.34.05h1.03c.34,0,.6-.02.74-.07.16-.05.31-.14.45-.28.19-.19.38-.47.57-.84h.18l-.52,1.53h-4.69v-.17h.22c.14,0,.28-.03.4-.1.1-.05.16-.12.19-.21.03-.1.05-.29.05-.59v-3.94c0-.38-.04-.62-.12-.71-.11-.12-.29-.17-.53-.17h-.22v-.17h4.69l.06,1.33h-.18c-.06-.32-.13-.54-.2-.65-.07-.12-.19-.21-.34-.28-.12-.04-.33-.06-.63-.06h-1.67Z"/>
    <path class="cls-5" d="m86.04,176.96h1.65l3.71,4.55v-3.5c0-.37-.04-.61-.13-.7-.11-.13-.29-.18-.52-.18h-.21v-.17h2.12v.17h-.21c-.27,0-.45.07-.55.23-.06.1-.1.31-.1.66v5.12h-.16l-4.01-4.89v3.74c0,.38.04.61.13.7.11.13.29.19.52.19h.21v.17h-2.12v-.17h.21c.27,0,.45-.07.55-.23.06-.09.1-.31.1-.65v-4.22c-.17-.2-.31-.34-.39-.4-.1-.07-.23-.13-.4-.19-.09-.03-.22-.04-.39-.04v-.17Z"/>
    <path class="cls-5" d="m99.27,179.66l2.24,2.23c.37.37.68.62.94.75.27.13.52.21.79.22v.17h-2.89v-.17c.17,0,.3-.03.37-.09.07-.06.12-.12.12-.2,0-.07-.01-.13-.04-.19-.03-.05-.12-.16-.28-.32l-2.09-2.07v1.96c0,.31.01.51.05.61.03.07.1.14.19.19.13.07.27.11.4.11h.2v.17h-2.58v-.17h.21c.25,0,.44-.07.54-.22.08-.1.12-.33.12-.69v-3.92c0-.3-.02-.51-.06-.61-.03-.07-.09-.13-.18-.19-.13-.07-.27-.11-.41-.11h-.21v-.17h2.58v.17h-.2c-.14,0-.28.03-.4.1-.1.05-.16.12-.19.21-.04.1-.05.29-.05.59v1.86c.05-.06.26-.24.61-.57.89-.81,1.43-1.35,1.61-1.63.09-.12.13-.22.13-.31,0-.08-.03-.13-.1-.19-.06-.05-.17-.07-.32-.07h-.14v-.17h2.23v.17c-.14,0-.26.02-.36.05-.11.03-.23.1-.39.19-.16.1-.35.25-.57.46-.06.06-.37.37-.9.92l-.94.92Z"/>
    <path class="cls-5" d="m110.74,181h-2.35l-.42.96c-.09.24-.15.41-.15.53,0,.09.04.17.14.24.09.07.28.12.56.13v.17h-1.91v-.17c.25-.04.43-.1.5-.17.15-.14.32-.44.5-.88l2.14-5h.16l2.12,5.05c.17.41.32.67.46.79.14.12.33.19.59.2v.17h-2.4v-.17c.24-.01.41-.05.5-.12.09-.06.13-.15.13-.24,0-.13-.06-.34-.18-.63l-.37-.87Zm-.13-.33l-1.02-2.46-1.06,2.46h2.08Z"/>
    <path class="cls-5" d="m116.44,176.96h1.65l3.71,4.55v-3.5c0-.37-.04-.61-.12-.7-.12-.13-.29-.18-.53-.18h-.21v-.17h2.12v.17h-.21c-.26,0-.44.07-.54.23-.06.1-.11.31-.11.66v5.12h-.16l-4-4.89v3.74c0,.38.03.61.12.7.12.13.29.19.52.19h.22v.17h-2.12v-.17h.21c.26,0,.44-.07.54-.23.07-.09.11-.31.11-.65v-4.22c-.18-.2-.32-.34-.4-.4-.1-.07-.22-.13-.4-.19-.09-.03-.21-.04-.39-.04v-.17Z"/>
  </g>
  <g>
    <path class="cls-2" d="m123.53,158.05c0,.3-.25.55-.55.54l-122.32-.65c-.3,0-.55-.25-.55-.55v-1.28c0-.3.25-.55.55-.55l122.32-1.03c.3,0,.55.24.55.54v2.97Z"/>
    <path class="cls-2" d="m123.53,163.86c0,.3-.25.55-.55.54l-122.32-1.03c-.3,0-.55-.25-.55-.55v-1.28c0-.3.25-.55.55-.55l122.32-.65c.3,0,.55.24.55.54v2.98Z"/>
  </g>
  <g>
    <path class="cls-4" d="m1.71,3.61l.24.06v.24c0,1.17-.17,2.09-.52,2.77-.27.49-.53.74-.82.74-.23,0-.36-.11-.36-.34,0-.12.11-.28.31-.46.6-.54.98-1.55,1.15-3.02ZM3.21.46c.8.29,1.46.64,2,1.03.46.34.69.66.69.97,0,.23-.12.35-.34.35-.12,0-.25-.11-.39-.33-.4-.64-1.09-1.25-2.06-1.82l.11-.2Zm3.79,5.63v.45c-.01.64.02,1.05.1,1.22.05.11.15.17.29.17-.01.31-.15.5-.41.58-.21.06-.8.09-1.76.09-1.09,0-1.73-.06-1.88-.18-.14-.11-.21-.31-.21-.61V2.54c.69.03,1.03.12,1.03.27,0,.09-.14.19-.43.28v4.57c0,.2.05.31.16.35.1.05.49.07,1.17.07s1.08-.03,1.2-.07c.21-.11.37-.78.47-2l.28.1Zm-.14-2.71c.74.62,1.34,1.25,1.77,1.89.32.47.48.86.48,1.17s-.13.46-.37.46c-.17,0-.3-.15-.39-.47-.27-.95-.82-1.9-1.65-2.87l.17-.19Z"/>
    <path class="cls-4" d="m17.8,2.31c.34-.58.51-.96.51-1.14,0-.11-.05-.19-.14-.23-.08-.04-.24-.07-.47-.09l.04-.27c.18-.02.37-.03.56-.03.48,0,.72.12.72.35,0,.15-.21.58-.64,1.3.38-.08.75-.21,1.13-.38.23-.12.4-.17.51-.17.27,0,.4.08.4.27,0,.13-.11.23-.3.31-.51.2-1.21.36-2.08.48-.36.53-.76,1.05-1.2,1.58.53-.46,1-.69,1.42-.69.64,0,1.01.43,1.12,1.29.7-.34,1.31-.62,1.8-.84.2-.1.31-.18.31-.24,0-.11-.1-.24-.29-.38l.21-.17c.58.31.87.6.87.88,0,.1-.15.2-.46.31-1.06.38-1.86.7-2.38.93.03.34.04.72.04,1.16s-.11.66-.31.66-.31-.18-.31-.53v-1c-.57.32-.98.6-1.22.83-.24.24-.37.48-.37.72,0,.3.15.51.45.63.28.12.76.18,1.43.18.85,0,1.49-.07,1.92-.21.11-.04.21-.06.29-.06.12,0,.22.03.31.09.15.12.22.23.22.35,0,.26-.79.39-2.35.39-1.05,0-1.79-.13-2.19-.39-.33-.2-.5-.53-.5-.96,0-.64.66-1.33,1.99-2.09,0-.82-.22-1.22-.67-1.22-.39,0-.91.31-1.56.95-.2.21-.39.44-.56.7-.11.16-.22.24-.35.24-.07,0-.14-.06-.18-.16-.03-.09-.05-.18-.05-.27,0-.15.16-.39.48-.7.51-.5,1.03-1.14,1.56-1.93-.07.01-.29.01-.64.01s-.61-.05-.78-.15c-.16-.09-.31-.26-.46-.51l.21-.2c.11.19.27.31.48.37.17.05.41.07.73.07s.55-.01.73-.03Z"/>
    <path class="cls-4" d="m29.78,1.56h1.12l.37-.49c.39.33.59.54.59.62,0,.05-.02.09-.07.12l-.25.16v5.12h-.55v-.69h-1.28v1.14h-.56V1.26c.13.05.3.13.51.24l.13.07Zm-.07.24v4.34h1.28V1.81h-1.28Zm5,3.14v4.11h-.58v-3.66c-.73,1.33-1.72,2.38-2.97,3.15l-.17-.2c1.28-1,2.24-2.26,2.92-3.76h-2.12l-.1-.24h2.43v-1.75h-2.03l-.08-.25h2.12V.23c.67.02,1,.1,1,.24,0,.07-.14.17-.42.28v1.59h1.28l.46-.62c.18.16.38.38.62.67l-.12.19h-2.23v1.75h1.85l.48-.66c.31.3.53.54.68.72l-.11.19h-2.79c.73,1.27,1.75,2.3,3.08,3.12-.2.15-.36.33-.5.54-1.15-.88-2.04-1.98-2.69-3.3Z"/>
    <path class="cls-4" d="m46.95,4.24c1.02-.98,2.04-1.48,3.08-1.48.67,0,1.19.2,1.6.6.47.48.71,1.06.71,1.76,0,.9-.43,1.61-1.26,2.13-.66.41-1.45.65-2.38.7l-.03-.28c2.01-.48,3.01-1.37,3.01-2.68,0-.44-.13-.83-.38-1.16-.33-.43-.79-.64-1.37-.64-.94,0-1.92.5-2.98,1.52,0,.9.04,1.8.11,2.71.01.11.01.21.01.3,0,.29-.03.48-.11.6-.12.16-.22.24-.31.24-.14,0-.22-.12-.25-.35-.05-.25-.15-.49-.31-.73-.13-.19-.34-.45-.63-.77l.17-.21c.06.06.16.15.3.26.26.23.46.41.59.53l.03-2.58c-.39.54-.8,1.09-1.22,1.65-.26.35-.45.6-.54.74-.09.11-.18.17-.28.17-.06,0-.13-.05-.18-.15-.05-.09-.07-.19-.07-.29,0-.16.14-.38.42-.65.54-.55,1.17-1.28,1.9-2.18,0,0,0-.34.03-.99-.64.3-1.03.49-1.16.55-.16.07-.26.11-.29.11-.13,0-.24-.09-.35-.26-.11-.16-.19-.38-.23-.65l.28-.09c.1.21.23.32.43.32.14,0,.58-.13,1.34-.4v-.3c0-.15,0-.37,0-.67,0-.29-.04-.48-.13-.58-.07-.1-.22-.19-.45-.25l.09-.28c.78.05,1.16.26,1.16.63,0,.06-.02.21-.07.44-.02.09-.07.37-.14.85h.03c.1,0,.18.04.27.12.14.14.21.26.21.35,0,.06-.04.15-.14.27-.15.16-.32.4-.49.72v.34Z"/>
    <path class="cls-4" d="m59.35,3.18c.04.35.16.52.35.52.05,0,.21-.06.48-.17,1.14-.45,1.93-.68,2.37-.68.53,0,.98.21,1.33.63.34.43.51.93.51,1.51,0,1.08-.46,1.96-1.38,2.66-.65.49-1.52.85-2.64,1.06l-.08-.28c1.01-.26,1.8-.64,2.35-1.14.72-.65,1.08-1.42,1.08-2.32,0-.53-.12-.95-.35-1.29-.21-.3-.47-.45-.78-.45-.29,0-.67.11-1.16.31-.44.18-.93.45-1.5.82-.11.06-.19.09-.28.09-.15,0-.29-.09-.39-.27-.12-.18-.17-.4-.17-.67,0-.12.01-.21.01-.28l.24-.06Zm1.25-1.17c.14-.08.31-.19.53-.32.27-.15.42-.25.47-.28-.5-.16-.9-.47-1.21-.91l.21-.2c.34.33.69.55,1.05.62.24.05.56.1.96.13.56.05.84.21.84.46,0,.18-.12.27-.34.27-.01,0-.05,0-.15-.02-.25-.04-.44-.06-.6-.06-.41,0-.96.18-1.62.52l-.15-.22Z"/>
    <path class="cls-4" d="m71.42,6.75c.81.28,1.41.66,1.82,1.13.19.23.29.46.29.69,0,.33-.16.49-.48.49-.16,0-.3-.13-.39-.38-.28-.68-.73-1.27-1.37-1.75l.14-.18Z"/>
    <path class="cls-4" d="m83.38,8.27c.31-.81.49-1.73.54-2.75.6.12.89.24.89.38,0,.08-.12.14-.34.19-.18.87-.48,1.64-.88,2.29l-.21-.11Zm1.04-3.97c.72-.93,1.35-1.94,1.89-3.01.52.24.79.43.79.54,0,.08-.14.13-.41.14-.61.83-1.24,1.61-1.91,2.31l.63-.04c.32-.02.66-.05,1.02-.1-.11-.22-.29-.47-.53-.74l.16-.18c.81.53,1.2,1.06,1.2,1.6,0,.26-.11.39-.33.39-.16,0-.25-.09-.28-.28-.02-.19-.05-.37-.11-.53-.13.03-.38.07-.79.15-.02,0-.04,0-.06.01-.03,0-.04,0-.05.01v4.48h-.55v-4.4l-.07.03c-.11.02-.3.04-.55.07-.22.03-.4.06-.53.08-.05.22-.12.33-.19.33-.11,0-.22-.28-.33-.82.19-.01.4-.02.64-.03.24-.01.37-.02.38-.02Zm.07-2.44c.3-.56.55-1.17.74-1.81.56.2.85.36.85.48,0,.07-.13.13-.39.16-.34.51-.68.95-1.01,1.31.35.3.53.58.53.83,0,.24-.12.36-.35.36-.13,0-.22-.12-.31-.36-.14-.41-.47-.82-1-1.23l.14-.18c.34.14.61.29.8.43Zm1.62,3.51c.68.67,1.02,1.29,1.02,1.84,0,.3-.13.46-.37.46-.17,0-.27-.15-.28-.45,0-.52-.19-1.1-.54-1.74l.17-.12Zm3.79-2.98v1.74h1.19l.47-.62c.23.23.43.45.57.66l-.12.2h-4.61l-.11-.24h2.02v-1.74h-2.16l-.12-.24h2.27V.17c.66.02.99.11.99.26,0,.08-.14.18-.4.28v1.44h1.34l.49-.64c.29.25.5.48.65.69l-.11.2h-2.37Zm-1.45,3.33h2.5l.36-.43c.39.3.6.5.6.6,0,.04-.02.08-.08.12l-.23.16v2.88h-.59v-.64h-2.68v.64h-.57v-3.63c.2.07.42.17.69.3Zm-.12.25v2.19h2.68v-2.19h-2.68Z"/>
    <path class="cls-4" d="m99.8,2.61h-1.06l-.08-.24h1.19l.02-.08c.11-.54.21-1.25.34-2.13.63.09.94.21.94.35,0,.09-.14.16-.43.22-.12.7-.2,1.22-.27,1.56,0,.02-.01.05-.01.08h1.04l.38-.48c.38.32.57.53.57.64,0,.03-.02.07-.06.1l-.24.14c-.17,1.42-.43,2.6-.76,3.56.8.5,1.2.91,1.2,1.23,0,.22-.1.34-.29.34-.11,0-.23-.12-.4-.34-.19-.25-.43-.5-.71-.74-.5.95-1.27,1.69-2.29,2.22l-.16-.22c.94-.61,1.62-1.39,2.02-2.35-.32-.24-.69-.46-1.11-.67-.03.06-.04.12-.05.17-.06.24-.13.42-.16.54l-.52-.17c.33-1.15.62-2.39.89-3.72Zm.58,0c-.21,1.14-.44,2.12-.69,2.93.46.18.86.35,1.2.52.3-.95.51-2.1.65-3.45h-1.16Zm5.34.09c.19.57.48,1.03.87,1.36.16.13.27.2.32.2.16,0,.31-.37.44-1.1l.25.13c-.06.4-.1.7-.1.88,0,.29.08.46.23.52-.07.26-.21.39-.42.39-.33,0-.7-.2-1.14-.58-.46-.42-.8-1-1.02-1.75h-1.58v1.49c.62-.09,1.17-.2,1.68-.33l.06.25c-.83.29-1.67.53-2.53.72-.02.23-.09.35-.16.35-.12,0-.25-.28-.39-.85.24-.01.51-.03.78-.06V.76c.22.07.45.18.67.3,1.21-.23,2.15-.51,2.78-.84.42.27.64.46.64.58,0,.05-.05.07-.15.07-.06,0-.16-.01-.32-.05-.51.12-.89.2-1.13.23,0,.02,0,.07,0,.14,0,.08.01.14.01.18,0,.36.05.72.15,1.09h.94l.44-.58c.2.19.4.4.58.65l-.11.19h-1.79Zm-2.1,2.65h2.73l.29-.29c.4.24.6.4.6.48,0,.04-.03.09-.11.14l-.16.12v3.24h-.56v-.59h-2.85v.59h-.56v-3.99c.13.04.34.14.63.29Zm-.06-2.87h1.52c-.09-.42-.14-.87-.16-1.34-.29.05-.72.11-1.3.16h-.06v1.17Zm0,3.12v1.16h2.85v-1.16h-2.85Zm2.85,2.62v-1.21h-2.85v1.21h2.85Z"/>
    <path class="cls-4" d="m119.59,2.74c.22,1.61.69,2.94,1.4,3.98.41.62.71.92.88.92s.33-.62.48-1.87l.25.13c-.06.64-.1,1.12-.1,1.46,0,.55.12.87.36.96-.06.3-.22.45-.47.45-.33,0-.77-.3-1.31-.9-1.11-1.24-1.81-2.94-2.12-5.09h-4.66l-.1-.25h4.72c-.01-.07-.02-.17-.03-.28-.04-.38-.06-.82-.06-1.33V.26c.66.05.99.14.99.27,0,.07-.13.17-.38.28v.21c0,.48.03.98.1,1.48h2.03l.48-.69c.2.19.39.4.57.63l.08.1-.11.22h-3.02Zm-2.54,2.16v2.34c.8-.16,1.53-.34,2.18-.52l.05.25c-1.39.51-2.76.92-4.13,1.25-.05.27-.12.4-.19.4-.14,0-.3-.32-.47-.96.66-.09,1.32-.19,1.99-.31v-2.45h-1.76l-.1-.25h3.15l.52-.69c.23.22.46.46.66.73l-.12.21h-1.79Zm3.23-4.5c.88.36,1.32.76,1.32,1.21,0,.25-.12.37-.35.37-.18,0-.3-.11-.34-.32-.1-.39-.34-.75-.74-1.08l.12-.18Z"/>
  </g>
  <path class="cls-1" d="m54.57,192.86c.06,0,.33,0,.38,0,.12-.02.59-.11.69-.12l.4-.06s.06-.03.06-.08c0-.3-.02-.3-.05-.3-.05,0-.35.06-.46.07-.22.03-.5.09-.51.09-.02,0-.1.02-.12.02-.04,0-.25-.09-.33-.13-.04-.02-.16-.07-.22-.11v-.04s.1-.02.11-.02c.02,0,.15.02.17.02s.3-.01.32-.01c.18-.03.63-.08.9-.11.16-.02.17-.01.17-.08,0-.12-.03-.43-.14-.48-.17-.07-.21-.07-.24-.12.04-.06.05-.07.16-.09h.15c.05,0,.08,0,.16.03.02.01.12.05.14.06.09.04.18.11.23.16.03.02.03.1.03.14-.02.04-.05.07-.06.08-.01.01-.01.11-.01.13v.09h.03c.15,0,.55-.04.68-.05.12,0,.17-.03.23-.12.02,0,.06,0,.08,0,.01,0,.12.01.19.04.1.03.16.08.19.1.01,0,.03.02.03.04,0,.06-.11.14-.17.17-.02,0-1.18.04-1.31.07h0c-.03.05-.03.08-.03.13,0,.09,0,.1-.01.21.02.02.02.02.03.02l.4-.03c.14,0,.4-.03.43-.03q.1-.05.16-.05c.06,0,.4.15.42.17.07.04.11.06.11.2,0,.06-.02.07-.13.21-.04.06-.17.6-.18.64-.11.27-.14.31-.24.36-.02,0-.07.03-.09.03-.03,0-.06-.02-.08-.04-.09-.1-.11-.11-.17-.11-.23,0-.27,0-.46.02v.03c.05.05.3.27.34.31.08.08.32.29.61.48,0,0,.19.13.22.15.24.15.44.26.55.35l.09.04s.12.06.16.1c.04.04.06.08.06.12,0,.07-.17.09-.19.09s-.13,0-.15,0c-.3-.03-.36-.03-.52-.15-.03-.02-.17-.13-.19-.15-.13-.12-.67-.66-.78-.77-.05-.06-.34-.41-.37-.41,0,0,0,0-.03.01v.02s0,.62,0,.69c0,0,.01.12.01.15v.6c0,.06,0,.32-.14.32-.02,0-.09-.02-.13-.04-.05-.08-.05-.09-.1-.26,0-.04-.06-.19-.06-.22,0-.04.04-.11.07-.2,0-.05.02-.07.03-.15.01-.13.01-.33.01-.45,0-.1-.01-.4,0-.46v-.02c-.15.08-.23.21-.32.33-.08.12-.25.31-.37.44-.11.11-.32.29-.49.41-.27.19-.6.3-.73.32-.02,0-.14,0-.17,0-.02,0-.04,0-.07-.03h-.01c.11-.05.2-.1.28-.14.07-.04.13-.08.19-.13.34-.25.62-.5.8-.69.03-.03.15-.17.18-.2.16-.21.18-.23.18-.29,0,0-.08.02-.1.02,0,0-.15-.04-.21-.06-.05-.02-.16.01-.19,0-.02-.03-.18-.18-.18-.29v-.16c-.01-.05-.06-.42-.13-.6-.03-.08-.08-.12-.22-.21v-.03Zm1.08.45c.18-.04.4-.09.48-.11,0-.25,0-.28-.01-.35,0,0-.03-.01-.04-.01,0,0-.32.05-.38.07-.08.02-.46.1-.52.12-.03,0-.03.03-.03.07,0,.05.02.2.05.26,0,0,.28-.02.46-.05Zm.48.13s-.02-.02-.03-.02c0,0-.29.05-.34.06-.1.01-.27.04-.29.04-.04,0-.22-.06-.27-.06.01.06.01.11.02.18.02.12.03.24.07.34.02,0,.05,0,.07,0,.05,0,.28-.04.34-.05.09-.02.17-.03.21-.03.03,0,.15-.02.2-.03v-.43Zm.46-.33s.12-.02.17-.02c.18.01.33,0,.33.1,0,.03-.03.15-.22.16-.44.02-.44.04-.44.08,0,.02,0,.22,0,.28,0,.12,0,.13.05.13.01,0,.64-.1.73-.1.11,0,.12,0,.13-.13.01-.05.06-.29.07-.34.02-.15.03-.29.03-.46,0-.08-.02-.1-.3-.1-.07,0-.37.04-.44.04-.07,0-.27.02-.28.04-.02.03-.03.27-.03.27,0,.04.01.04.04.06.02,0,.12-.03.14-.03Z"/>
  <path class="cls-1" d="m59.83,195.7s.36-.2.39-.22c.19-.13.29-.23.51-.58.08-.14.21-.56.21-.78-.02,0-.04,0-.05,0-.1.05-.36.2-.44.23l-.11.12c-.05.03-.09.04-.11.04-.05,0-.27-.14-.28-.18-.01-.02-.04-.1-.04-.11-.01-.02-.02-.04-.05-.07,0-.03,0-.06.04-.06.12.03.13.04.19.04.17,0,.23-.18.43-.5.03-.04.1-.18.11-.21.03-.06.03-.07.04-.12-.06,0-.17-.03-.34-.06-.1-.02-.28-.05-.32-.07-.05-.04-.1-.09-.1-.15,0-.03.04-.03.05-.02.03.03.04.02.1.02.27,0,.26-.02.28-.12.04-.22.14-.95.14-1.04,0-.16-.02-.17-.22-.26,0,0-.02-.01-.02-.03,0-.04.07-.04.09-.04.39,0,.61.13.61.2,0,.03-.05.13-.06.15,0,.1-.11.41-.17.62,0,.02-.05.17-.07.23-.02.05-.04.1-.07.16-.03.04-.04.05-.04.1.02,0,.06,0,.11,0,.07,0,.17-.02.22-.02.06-.06.21-.51.21-.6-.04-.04-.12-.14-.1-.18.11,0,.2.03.36.1.08.03.14.06.14.13,0,.11-.06.19-.14.28-.01.04-.05.13-.1.21-.04.1-.16.27-.29.46.04.02.21.05.24.08.07.06.11.14.11.33,0,0,0,.07,0,.16-.01.17-.03.31-.1.52-.02.07-.03.12-.03.13,0,.04.06.06.1.06.1,0,.22-.03.27-.14.02-.04.04-.97.04-1.06.01-.35.03-.83.03-.88,0-.23.01-.41-.1-.47-.07-.04-.16-.12-.16-.14,0-.03.02-.04.06-.04.04,0,.14-.02.15-.02,0,0,.07.02.11.04.03.02.06.03.11.03.12-.01.32-.04.53-.12,0,0,.04-.06.05-.08.02-.02.06-.03.1-.03.12,0,.41.1.39.24.01.02.02.04.04.04.02,0,.05-.04.06-.04,0,0,.17.04.2.04.1,0,.52-.11.55-.13.01-.01.05-.1.06-.12.32-.03.49.1.49.17,0,.02-.11.09-.12.1-.08.1-.14.21-.17.32-.05.14-.27.58-.3.63-.03.04-.07.1-.1.14,0,0,.04.02.13.06.18.12.36.39.46.65.07.19.11.49.11.61,0,0-.03.23-.18.36-.05.03-.13.07-.14.07-.02,0-.02,0-.1-.11-.04-.05-.14-.09-.19-.11-.19-.08-.32-.04-.34-.04,0,0-.02.02-.02.03,0,.02,0,.32,0,.34,0,.05-.01.23-.01.27,0,.06.01.31.01.37,0,.18-.01.2-.03.23-.05.08-.15.14-.18.14-.06,0-.11-.2-.11-.22,0,0,.04-.16.05-.43,0-.64,0-1.4,0-1.4,0-.05,0-.17,0-.46-.01-.29-.01-.71-.01-.71,0-.02,0-.13,0-.15,0-.05-.01-.29-.01-.34,0-.02,0-.03,0-.05-.02-.03-.13-.14-.15-.16h-.02v.14s-.02.21-.05.4c-.02.19-.04.53-.1.66-.04.11-.14.17-.23.13,0,0-.03-.04-.03-.04-.04,0-.17.03-.23.04-.05.01-.15.03-.19.04-.03,0-.09.03-.11.06-.01.03-.03.21-.05.45,0,.02-.02.27-.02.31.05,0,.11-.03.39-.24.04-.03.22-.14.27-.17,0-.08-.1-.24-.17-.29v-.02s.04,0,.06,0c.02,0,.15.04.3.2.02.03.06.07.11.14.04.05.11.19.13.28,0,.04.02.1.02.13,0,.08-.1.16-.14.16-.07,0-.16-.06-.18-.18-.03-.11-.04-.15-.07-.19-.08.04-.37.25-.53.39-.15.16-.38.45-.49.45-.02,0-.22-.11-.35-.23,0,.02-.09.2-.17.34-.06.12-.14.21-.22.29-.13.11-.31.2-.33.21-.18.1-.52.18-.54.18s-.04,0-.04-.03h.01Zm.7-1.65c.09,0,.43-.16.44-.2.01-.02.01-.03.01-.05,0-.08-.02-.34-.13-.29-.04.09-.06.12-.11.18-.1.14-.19.29-.22.35v.02Zm1.34-.76s.27-.05.35-.06c.08-.02.14-.04.16-.04.01-.01.02-.03.02-.05v-.26c0-.1.01-.21.01-.24-.02-.01-.11.07-.15.08-.24.04-.36.03-.37.14,0,.06-.01.16-.01.18,0,.08,0,.12,0,.22v.03Zm.04-.72h0s.06-.06.26-.1c.1-.02.15,0,.24,0,0-.1.02-.39.02-.41,0-.02,0-.05-.03-.05-.02,0-.17.07-.31.1-.21.04-.23.03-.23.08,0,.02,0,.03.02.06,0,.03.02.07.02.16v.16Zm1.38-.38c-.02.05-.02.11-.02.2v.64s.02.05.05.05c.1,0,.19-.32.21-.38.04-.14.13-.37.18-.52.01-.03.01-.05.01-.1-.06,0-.35.06-.42.08l-.02.02Zm0,2.23c.13,0,.47-.08.49-.1.07-.04.07-.15.07-.17,0-.17-.05-.33-.11-.48-.06-.18-.1-.27-.24-.28-.09,0-.2.01-.2.01v.14c.01.1,0,.35,0,.57,0,.12,0,.18-.02.28v.03Z"/>
  <path class="cls-1" d="m66.72,192.57c-.19.06-.39.17-.44.17-.12,0-.2-.03-.36-.1-.04-.02-.16-.09-.18-.11,0-.01-.04-.05-.05-.06,0-.01,0-.02.03-.02.03,0,.21,0,.26,0,0,0,.22-.02.27-.02.19-.03.67-.13.7-.16.39-.12.44-.13.49-.13.07,0,.18.01.2.03.03.02.04.06.05.11,0,.02,0,.02,0,.06-.02.04-.21.1-.3.1s-.13,0-.19,0c-.08.01-.27.05-.47.12Zm-.04,3.12c0,.09,0,.17-.07.17-.1,0-.28-.15-.28-.21v-.13c-.03-.32-.14-.79-.16-.84-.06-.13-.06-.15-.15-.21-.01,0-.12-.1-.14-.12h0s.06-.06.19-.06c.06,0,.16.01.22.04.05.01.11,0,.23-.05.06-.03.57-.18.63-.18.03,0,.08.03.23.12.06.04.11.06.11.12,0,.07-.04.11-.07.13-.03.03-.13.5-.15.54.05.03.12.12.12.14,0,.05-.06.16-.18.18-.09,0-.21.04-.36.07-.03,0-.13.02-.16.04v.27Zm.51-2.01c-.12.04-.51.14-.6.14-.13,0-.22,0-.34-.05-.03-.02-.09-.05-.08-.1.04-.02.29-.05.33-.06.15-.04.21-.05.35-.11,0,0,.08-.08.11-.08h.04c.26,0,.31,0,.31.12,0,0-.06.12-.13.14Zm-.9-.62c.25-.03.62-.15.7-.25.01,0,.03,0,.04,0,0,0,.06,0,.07,0,.14,0,.19.02.19.07,0,.02-.01.1-.01.11-.07.06-.07.07-.48.16-.14.04-.26.06-.32.06-.14,0-.27-.05-.32-.12,0-.03.02-.03.12-.04Zm.07-1.65h.07c.13.07.24.12.35.14.08.01.21.03.3.02.21,0,.35.16.35.23,0,.03-.02.09-.04.12-.02.04-.09.04-.21.04-.14,0-.31-.05-.53-.2-.18-.13-.24-.2-.3-.33,0,0,0,0,0,0Zm.15,3.17c.04.13.07.3.1.45,0,.07,0,.13.03.13.01,0,.28-.06.31-.13,0,0,.12-.46.12-.72,0,0-.03,0-.04,0-.07,0-.45.17-.52.2v.02s0,.05,0,.08Zm2.72-2.43h-.02c-.06.03-.56.13-.76.2-.03,0-.16.08-.19.08h-.03c-.21,0-.44-.18-.44-.2s.02-.03.03-.03c.26,0,.81-.16.89-.18.06-.02.42-.1.44-.11.11-.07.11-.12.11-.21,0,0,.03-.03.05-.03.06,0,.27.1.4.18.11.07.22.21.22.29,0,.05-.03.08-.05.1-.03.01-.16.04-.18.05-.01.04-.09.23-.12.3-.04.13-.06.22-.11.35,0,.03.04.12.04.14,0,0-.03.07-.03.07-.04.08-.27.08-.55.16-.29.08-.54.17-.56.17,0,0-.16-.01-.19-.01-.02.06-.06.21-.06.29-.02.16-.03.35-.05.63,0,.33.01.56.03.63.04.12.36.36.71.37.53.02.73-.09.76-.16.02-.05.08-.34.08-.47,0-.08.05-.56.06-.69h.02c0,.08.04.54.29,1.06,0,.03.07.12.08.14.01.01.01.03.01.04,0,.08,0,.1-.16.24-.12.11-.43.22-.71.23-.23,0-.83,0-1.23-.35-.03-.03-.15-.13-.2-.28-.05-.14-.06-.33-.05-.5l.03-.45s.06-.57.06-.74c.01-.25-.02-.3-.04-.31-.06-.06-.05-.04-.05-.09.02,0,.1-.02.12-.02.06.01.15.04.26.1.03.03.06.08.08.08.08,0,.5-.17.6-.2.23-.07.26-.08.29-.13.02-.02.04-.18.07-.33.02-.15.07-.4.05-.45Z"/>
  <path class="cls-1" d="m71.47,194.28s.23-.16.26-.19c.05-.04.17-.14.21-.19.44-.46.68-.84.95-1.27.11-.18.29-.51.39-.7.06-.11.14-.25.14-.38-.02-.03-.15-.12-.17-.15v-.02s.29-.06.31-.06c.17,0,.34.14.41.22.02.02.03.07.03.09,0,.03,0,.07-.09.11,0,.01-.07.02-.08.03.02.02.15.12.18.14.09.08.18.21.32.39.18.23.32.39.66.72.05.05.29.28.34.32.03.03.18.14.21.17.31.2.38.23.5.4,0,0,.03.04.05.06v.03s-.04.04-.1.04c-.03,0-.25-.02-.34-.03-.05,0-.13-.01-.18,0-.05,0-.11,0-.17-.05-.14-.11-.37-.38-.4-.43-.16-.2-.43-.57-.49-.67-.12-.19-.33-.47-.45-.66-.13-.2-.21-.22-.31-.26-.02.03-.21.31-.32.52-.11.2-.23.41-.26.45.04,0,.08.02.11.02.12,0,.22-.04.34-.07.06-.03.09-.04.19-.13.06-.02.13-.03.25-.03.11,0,.14.03.21.13.02.1-.18.18-.66.25-.14.02-.23.02-.32.02-.05,0-.08,0-.1,0,0,0-.08-.05-.1-.05-.02,0-.02.03-.06.1-.04.07-.27.4-.3.44-.02.03-.06.09-.05.11.04,0,.29-.01.31-.01.21-.04.81-.18.99-.24.02,0,.1-.08.12-.08.06,0,.46.15.46.32,0,.05,0,.05-.14.09-.04,0-.29.29-.57.53-.14.11-.35.21-.4.24-.04.03-.13.05-.18.06l-.05-.05v-.02s.13-.08.13-.08c.32-.22.56-.66.57-.7h0s-.18.04-.21.04l-.47.13s-.06.03-.07.03c-.11,0-.34-.13-.39-.17-.06-.04-.07-.04-.12-.04-.04.05-.1.16-.2.24-.3.23-.45.28-.58.33-.05.02-.11.04-.13.04-.06,0-.11-.01-.16-.02v-.03h0Zm.52.98s.14-.51.14-.56c0-.13-.03-.2-.04-.24h0s0-.02,0-.02c.07,0,.18.1.2.12.03.04.07.1.05.37-.01.18-.05.41-.05.49,0,.07,0,.08.04.22.01,0,.01.02.01.03,0,.07-.06.14-.18.14-.14,0-.18-.12-.21-.21-.03-.11-.07-.17-.07-.17.01-.01.01-.03.01-.04,0,0,.04-.05.1-.14Zm.61-.82c.18.02.34.16.37.22.03.06.05.15.06.2.01.05.02.1.05.17.06.16.26.29.44.34.23.09.48.13.6.14.32.03.63,0,.79-.05.01-.02.02-.05.02-.07,0-.09-.05-.27-.16-.38-.04-.05-.17-.2-.2-.26h0c.07,0,.09.01.25.13.16.13.45.37.52.4.18.08.32.14.32.18,0,.08-.01.13-.1.19-.15.1-.67.2-1.4.14-.71-.05-1.09-.17-1.34-.53-.1-.14-.07-.23-.13-.6,0-.06-.1-.16-.11-.21h0Zm1.01.23c.05,0,.11,0,.16.03.03.02.17.12.19.12.07,0,.12-.09.13-.1.04-.1.04-.12.05-.12,0,0,.04.01.04.03-.01.15.06.12.07.16.04.09.03.2.02.25,0,.05-.05.12-.08.14-.03.03-.12.04-.14.04-.07,0-.23-.08-.29-.14-.11-.1-.05-.26-.16-.38v-.02Zm.86-.63c.13,0,.46.07.54.13.24.15.26.18.26.25,0,.05-.09.17-.22.17-.12,0-.1-.06-.35-.3-.03-.04-.17-.14-.22-.17-.02-.02-.04-.02-.06-.04.02-.03.04-.05.06-.05Z"/>
  <path class="cls-1" d="m77.21,193.62s.11-.06.13-.08c.21-.2.77-1.06.93-1.4l.17-.37s0-.02,0-.04c0-.03,0-.04-.02-.06,0-.02-.11-.05-.12-.07,0-.01-.02-.03-.02-.05,0-.04.04-.05.06-.05.26,0,.53.18.55.3,0,0,0,.03,0,.04-.05.04-.1.15-.11.16v.02c.05.02.26.05.35.08.1.04.28.14.28.23,0,.02,0,.04-.01.06.06.03.07.03.15.03.06,0,.68-.1.74-.12l.02-.02c0-.09,0-.24-.02-.32,0-.07-.04-.29-.11-.32-.04-.01-.27-.08-.3-.12-.02,0-.04-.05-.04-.07,0-.01,0-.03.04-.05.11,0,.19,0,.3.02.41.07.48.17.53.21v.04c-.05.3-.15.51-.16.54v.06h.02c.22-.01.4-.05.54-.08.03-.03.03-.03.12-.08.03,0,.05,0,.07,0s.14.04.38.27c.03.04.12.15.12.24,0,.12-.15.15-.17.15-.03,0-.14.01-.29.05-.08.03-.18.05-.35.05-.09,0-.1,0-.12-.04.09-.03.15-.07.19-.11.14-.14.18-.21.18-.31-.04-.01-.05-.01-.08-.01-.18,0-.39.01-.65.05-.34.04-.55.12-.59.15-.06.04-.11.05-.13.05l-.25-.03s0,.04.03.1c0,.03.03.1.03.12v.11s.05,0,.11.03c.21.08.24.09.29.15.02.01.06.02.11.02.05,0,.16-.01.33-.03.17-.02.28-.03.34-.09.01-.02.01-.09.11-.09.13,0,.46.21.46.33,0,.03,0,.05-.09.13-.02.02-.05.05-.06.08-.08.28-.14.36-.14.37,0,.01.05.06.06.07.01,0,.01.03.01.04,0,.11-.12.11-.15.11-.12,0-.63.1-.73.1s-.1,0-.11.06v.31s.16.04.18.04l.44-.07s.16-.03.16-.03c.02,0,.1-.1.12-.11,0,0,.02,0,.03,0,.14,0,.47.09.47.31,0,.01-.1.13-.14.19-.03.13-.07.42-.07.42,0,.03,0,.03.1.08.06.03.11.07.11.12,0,.09-.08.11-.14.11-.06,0-.31-.05-.36-.05,0,0-.25.02-.46.06-.02,0-.11.03-.13.03h-.1s-.16-.04-.19-.04c0,.03-.03.16-.05.18-.05.05-.14.14-.15.14-.04,0-.08-.06-.14-.19-.01-.02-.06-.09-.07-.11v-.03s0-.02.03-.1c0-.01.04-.19.05-.29.02-.16.02-.23.03-.43,0-.19,0-.55-.01-.9,0-.15-.02-.54-.08-.68-.02-.05-.1-.11-.16-.14-.02.13-.03.17-.1.32-.02.05-.1.1-.13.1-.09,0-.13-.19-.14-.26-.02-.09.15-.45.15-.62,0-.08-.05-.08-.19-.09-.08-.01-.19-.09-.36-.21-.02-.02-.12-.09-.18-.09-.05,0-.1.1-.18.24-.09.12-.16.22-.16.23,0,.02.01.03.02.04.03,0,.35.08.35.22,0,0,0,.02-.01.04-.04,0-.05.02-.07.07-.04.1-.04.12-.05.17h.02c.05,0,.06-.02.11-.1.01,0,.04-.06.1-.06.15,0,.45.12.45.2,0,.07-.06.11-.1.12,0,.04-.07.94-.22.93-.02-.01-.05-.03-.06-.03-.02,0-.06.02-.1.03v.02c.11.03.28.14.33.17.07.06.17.18.3.41.01.02.06.07.07.09h0c0,.31-.04.39-.19.39-.13,0-.12-.15-.18-.31-.02-.03-.07-.14-.1-.2-.02-.05-.04-.06-.06-.06-.03,0-.16.12-.19.14-.08.07-.4.35-.56.48-.05.05-.19.2-.2.23-.02.03-.06.14-.08.17-.02.01-.03.02-.06.02-.12,0-.19-.07-.27-.16-.07-.09-.1-.17-.1-.17,0-.05,0-.09,0-.14,0-.03,0-.05-.03-.08.01-.02.02-.04.04-.04.07.05.22.13.25.14.02-.02.25-.22.25-.23,0-.02-.03-.11-.03-.13,0-.01.01-.13.01-.15,0-.34,0-.84,0-.95,0-.27,0-.44-.19-.56-.04,0-.18.15-.21.17-.04.02-.28.12-.31.12-.01,0-.04-.01-.05-.01v-.04Zm.8-.28c.11,0,.17,0,.31-.05-.01-.37-.01-.41-.13-.47-.05.08-.33.41-.35.49.02,0,.14.03.17.03Zm.75.33s.02-.31-.05-.31c-.02,0-.03.02-.13.05-.11.04-.27.07-.36.08-.01.03-.02.05-.02.06,0,.03,0,.13.03.18.07-.02.16-.05.26-.1.07-.03.17-.02.19-.02.03,0,.05.02.07.06h0Zm-.27,1.17c.13-.08.34-.16.36-.22,0-.04-.1-.2-.13-.24-.03-.04-.11-.05-.12-.05-.02,0-.23.05-.36.11,0,0-.03.41-.02.56.12-.07.2-.13.27-.17Zm-.22-.92s-.03.32,0,.34c.1-.02.46-.18.47-.18.01-.04,0-.22.02-.29-.05,0-.11.02-.18.04-.08.02-.27.06-.29.06v.03Zm2.59-.67s0-.02,0-.04c-.03,0-.31.08-.37.1-.05.01-.12.01-.13.01-.11,0-.17-.02-.22-.04h-.02s.04.14.05.37c0,.14,0,.28.02.29.03,0,.37-.07.45-.09.1-.02.14-.07.14-.08l.1-.52Zm-.65,2.15c.26-.03.78-.08.8-.14.01-.02.02-.17.03-.21,0-.03.03-.32.03-.33,0-.04,0-.07,0-.1-.04,0-.53.1-.64.1-.04,0-.22-.05-.27-.06,0,.01-.03.03-.03.07,0,.08.02.43.02.48,0,.07,0,.08.02.17.02.01.03.02.04.02Z"/>
  <path class="cls-1" d="m43.83,192.36s.04-.02.06-.02c0,0,.11,0,.14,0,.12,0,.23,0,.31-.02.05,0,.39-.03.53-.04.16,0,.44-.03.52-.06.03-.01.12-.05.13-.06.05-.02.06-.02.08,0,.02,0,.11.04.21.11.02.02.03.02.03.06,0,.06,0,.07-.03.09-.01,0-.09.04-.12.04-.04,0-.22-.04-.27-.04-.02,0-.13-.02-.23-.01-.03,0-.11,0-.15.03v.03s.02,0,.03.01c.04.03.16.14.16.18,0,.01-.02.01-.07.11-.01.03-.03.07-.03.08-.01,0-.03.06-.03.07v.02s.39,0,.44-.02c.04-.03.06-.03.11-.03.05,0,.25.2.25.24,0,.06-.02.09-.06.13-.01,0-.03.07-.03.12,0,.04,0,.09-.02.16-.01.1-.02.17-.03.21,0,.05-.04.14-.05.17-.03.04-.03.05-.05.06l-.13-.02s-.05-.05-.1-.11c0-.02-.18-.02-.21-.02-.02,0-.23.02-.23.06,0,0,.07.12.08.14-.02.06-.02.07-.03.15,0,.05,0,.1,0,.16v.14c0,.16,0,.25-.01.31,0,.06-.02.14-.06.19-.02.03-.09.09-.15.13h0s-.04-.04-.09-.13c-.02-.07-.08-.11-.18-.16-.03-.02-.07-.02-.1-.06-.01-.01-.01-.02-.02-.03.05,0,.07,0,.1,0,.04,0,.2,0,.23,0,.06-.02.06-.24.06-.28v-.38c.01-.06-.05-.16-.12-.16-.01,0-.11,0-.13.02-.03.02-.07.06-.08.06-.03,0-.15-.09-.15-.17,0-.1,0-.15,0-.29,0-.08-.02-.23-.04-.27,0-.02-.03-.1-.05-.11,0,0,0-.03,0-.06.03-.02.07-.04.1-.04.03,0,.11,0,.14,0,.03,0,.15-.04.18-.04.17-.04.19-.04.21-.1.03-.11.06-.17.06-.34,0-.09-.1-.13-.12-.13,0,0-.19.03-.27.04-.07.01-.23.03-.35.06-.01,0-.04,0-.05,0v.03s.08.07.1.1c.02.03.03.05.03.08,0,0-.07.12-.07.15-.01.04-.04.18-.06.26-.05.2-.11.34-.23.68-.04.08-.11.27-.3.52-.02.03-.13.14-.19.19-.02.01-.09.06-.1.06h-.02s0-.02,0-.04c0-.02,0-.03.02-.07.02-.03.13-.18.19-.3.06-.11.2-.4.29-.64.05-.16.13-.4.16-.55.02-.1.07-.31.07-.36,0-.06-.06-.2-.08-.22-.01,0-.06-.05-.07-.07h0Zm.36,1.7s.04,0,.05.04c.02.05.05.19.05.26,0,.07-.14.4-.17.44-.04.06-.06.06-.13.06-.07,0-.07-.2-.07-.22,0-.05,0-.06.01-.1.06-.01.09-.03.18-.18.04-.07.06-.12.06-.21v-.07h0Zm1.24-.36s.03,0,.04,0c.05,0,.05-.04.06-.11.01-.12.01-.34.01-.46,0-.08-.02-.08-.07-.08h-.26s-.53.07-.67.13c-.04.02-.06.04-.06.07q0,.22.03.22s.28-.07.31-.08c.08-.02.16-.05.24-.07.06-.02.05-.02.14-.02,0,0,.17,0,.17.06,0,.03-.07.09-.09.09-.02,0-.23.03-.37.05-.13.03-.26.07-.3.07-.1,0-.11,0-.13.01-.02.02-.02.11-.02.12,0,.06.03.11.05.11.1-.02.21-.04.34-.06.05,0,.13-.02.18-.03.1-.01.28-.03.38-.03Zm.18.52c.12.09.33.3.36.39.04.1.04.12.05.14,0,.12-.11.16-.12.16h-.07s-.04-.02-.05-.04c-.05-.08-.26-.41-.29-.47-.06-.14-.06-.16-.11-.24,0-.03,0-.03,0-.05.06,0,.21.1.22.1Z"/>
  <path class="cls-1" d="m47.89,193.4s-.06-.09-.1-.12c0-.02-.02-.01-.02-.03.03-.01.04-.01.05-.01.06,0,.21.07.24.1.06.05.07.17.07.17,0,.01-.03.05-.06.11,0,0-.02.03-.03.04-.02.04-.05.08-.06.1,0,.02-.07.13-.08.15-.02.03-.12.16-.13.18,0,0,.05.08.06.11.04.07.05.23.05.26,0,.03.01.15.01.17,0,.2-.03.36-.06.52,0,.05-.02.06-.04.06-.11,0-.16-.14-.16-.23,0-.02.04-.12.04-.15,0,0,.05-.42.05-.5,0-.06-.02-.09-.03-.12h0s-.12.15-.14.17c0,0-.06.08-.11.13-.02.02-.13.14-.15.15,0,0-.09.06-.12.07-.11.04-.12.04-.13.04-.03,0-.05-.03-.05-.06,0-.02.07-.06.09-.06.03-.02.08-.08.11-.1.16-.17.18-.2.2-.23.04-.06.23-.33.35-.57.02-.05.06-.13.1-.18,0,0,.01-.04.03-.07.01-.03.02-.06.03-.08v-.03Zm-.56-.24s.11-.2.11-.34c0-.04-.02-.07-.03-.08-.05-.05-.06-.06-.07-.08,0-.02.02-.03.03-.03.03,0,.15.03.17.06.05.06.06.06.09.06.04,0,.19-.03.29-.04.08,0,.17-.02.38-.05.02,0,.03,0,.05,0,0-.02-.01-.1-.01-.12-.03-.27-.04-.29-.14-.33-.13-.05-.14-.06-.14-.08,0-.02.02-.05.04-.06.04-.02.06-.02.24-.02.06,0,.14.02.27.14.03.03.03.07.03.11,0,.03-.04.13-.05.18,0,.06-.02.13-.02.13,0,.02.01.02.02.02.02,0,.19-.03.32-.04.13-.01.35-.03.36-.03.01,0,.15-.05.17-.05.05,0,.08.01.14.05.01,0,.05.04.07.06.11.1.19.18.19.22v.06c0,.06,0,.11-.05.11,0,0-.04,0-.06-.01-.05,0-.13,0-.19,0-.03,0-.09,0-.12.01-.03,0-.06,0-.06,0,0,0,0,0,0,.02v.02c.05.03.06.04.06.07,0,.07-.1.07-.12.07-.12,0-.13,0-.27.03-.02,0-.13,0-.14.02t-.01.02s.07.05.07.08c0,.07-.15.18-.18.2-.01,0-.05.04-.05.05v.02s.03,0,.05-.01c.02,0,.04-.01.24-.06.04,0,.18-.02.2-.04.07-.05.09-.05.1-.05.01,0,.18.12.21.13.04.03.15.08.15.16,0,0,0,.03,0,.03-.05.04-.06.05-.1.05,0,.02-.04.23-.04.34,0,.11-.02.17-.02.25v.6c0,.06,0,.07-.03.11-.06.08-.06.1-.12.1-.09,0-.11-.14-.11-.14,0-.07,0-.09-.01-.1-.03-.02-.06-.02-.1-.02-.18,0-.35.03-.47.05-.02,0-.11.02-.12.02-.01,0-.05.03-.06.03,0,0-.13-.12-.13-.26,0-.01,0-.07,0-.09v-.3s0-.07,0-.09c0-.04.02-.25.02-.3q0-.08-.08-.11s-.06-.05-.06-.07.07-.06.08-.07c.01,0,.12-.08.16-.13.05-.05.16-.21.16-.29-.02-.02-.03-.02-.04-.02s-.03,0-.05,0c-.12.03-.16.05-.27.05-.02,0-.15-.07-.2-.16,0,0,.01,0,.01,0,.02,0,.1,0,.12,0s.12,0,.14,0l.36-.08.3-.08s.13-.05.15-.05c0,0,.09.03.11.03.02,0,.19-.22.19-.26,0-.03-.02-.03-.08-.03h-.29c-.15.03-.4.06-.6.08-.13.02-.39.05-.5.06-.1,0-.19.06-.19.06-.02,0-.12-.03-.14-.03-.01.1-.03.19-.06.3-.01.03-.03.13-.07.22-.06.13-.14.24-.21.24-.06,0-.1-.1-.11-.13-.03-.05-.04-.11-.04-.12,0-.04.05-.14.06-.17.02-.03.05-.05.09-.06h.02Zm1.87.96s.02.03.02.04c0,.03-.13.15-.18.15s-.34.06-.35.06c-.02,0-.09,0-.1,0-.01.03-.02.15-.02.2v.13s0,.09,0,.14c.03,0,.37-.06.4-.07.06,0,.14-.01.17-.01,0,0,.05.02.06.02,0,0,.03,0,.03-.02,0-.07.04-.66.04-.73,0-.02-.01-.15-.01-.18,0-.19,0-.2-.16-.2-.05,0-.12,0-.22.03-.05,0-.37.12-.42.12-.01,0-.03,0-.04,0-.01,0-.01.01-.01.01.08.03.18.07.18.17,0,.03,0,.14,0,.17,0,.04,0,.05,0,.09.03,0,.16,0,.24-.04.07-.04.16-.09.27-.07.02,0,.09.02.09.02Z"/>
  <path class="cls-1" d="m51.38,195.9h-9.32v-4.53h9.32v4.53Zm-9.04-.28h8.75v-3.96h-8.75v3.96Z"/>
</svg>